<svg width="262" height="236" viewBox="0 0 262 236" fill="none" xmlns="http://www.w3.org/2000/svg">
<g clip-path="url(#clip0_3_9)">
<path d="M34.1226 1.45658C22.7061 8.23523 0.213333 34.0752 0 40.8517V52.0687C0 66.2873 13.2906 78.7844 25.3578 78.7844C39.8474 78.7844 51.9199 66.7759 51.9209 52.5231C51.9209 66.7759 63.5796 78.7844 78.0702 78.7844C92.5619 78.7844 103.846 66.7759 103.846 52.5231C103.846 66.7759 116.243 78.7844 130.733 78.7844H130.996C145.488 78.7844 157.884 66.7759 157.884 52.5231C157.884 66.7759 169.17 78.7844 183.659 78.7844C198.15 78.7844 209.808 66.7759 209.808 52.5231C209.808 66.7759 221.883 78.7844 236.372 78.7844C248.439 78.7844 261.729 66.2895 261.729 52.0687V40.8517C261.516 34.0741 239.023 8.23309 227.609 1.45658C192.125 0.210716 167.526 -0.0047498 130.864 0.000583518C94.2024 0.00378351 44.2207 0.576582 34.1204 1.45658H34.1226ZM103.663 72.0878C102.277 74.5031 100.561 76.7129 98.564 78.6532C93.0941 84.0014 85.5966 87.3166 77.331 87.3166C69.3772 87.3241 61.7377 84.212 56.0532 78.6489C54.0713 76.7076 52.5652 74.6318 51.186 72.2148L51.1796 72.219C49.8015 74.6404 47.8815 76.715 45.8953 78.6585C40.2086 84.2175 32.57 87.3269 24.6175 87.3198C23.6213 87.3198 22.5845 87.0446 21.7461 86.7566C20.5813 98.8867 20.0895 110.479 19.9157 118.931L19.9135 118.979C19.8922 123.272 19.8709 126.801 19.8495 131.705C20.0735 157.155 17.329 214.194 31.0708 228.209C52.3657 233.174 91.5507 235.436 130.863 235.45H130.869C170.18 235.436 209.365 233.174 230.66 228.209C244.401 214.193 241.657 157.154 241.881 131.704C241.857 126.801 241.838 123.272 241.817 118.978L241.814 118.93C241.641 110.476 241.149 98.8846 239.984 86.7545C239.146 87.0425 238.11 87.3177 237.113 87.3177C229.16 87.3248 221.522 84.2154 215.835 78.6564C213.849 76.7129 211.929 74.6393 210.55 72.2169L210.543 72.2126C209.163 74.6297 207.658 76.7065 205.676 78.6468C199.992 84.2095 192.353 87.3211 184.399 87.3134C176.135 87.3134 168.636 83.9961 163.166 78.6489C161.169 76.7086 159.453 74.4988 158.068 72.0836C156.697 74.4961 154.997 76.7058 153.016 78.6489C147.33 84.211 139.69 87.3221 131.736 87.3145C131.448 87.3145 131.16 87.3017 130.872 87.2931H130.865C130.577 87.3017 130.289 87.3145 129.997 87.3145C122.044 87.3224 114.404 84.2117 108.718 78.65C106.737 76.7069 105.037 74.4972 103.666 72.0846L103.663 72.0878ZM81.811 100.344L81.8088 100.354H81.8248C90.4787 100.373 98.1661 100.354 107.691 110.75C115.188 109.964 123.022 109.571 130.861 109.583H130.868C138.708 109.573 146.541 109.964 154.039 110.75C163.564 100.353 171.252 100.372 179.906 100.354H179.921L179.918 100.344C184.007 100.344 200.362 100.344 211.758 132.351L223.999 176.26C233.07 208.926 221.095 209.725 206.157 209.754C184.005 208.929 171.739 192.842 171.739 176.756C159.477 178.766 145.172 179.771 130.867 179.772H130.86C116.554 179.772 102.249 178.766 89.988 176.756C89.988 192.842 77.7214 208.929 55.57 209.754C40.6324 209.725 28.6581 208.927 37.729 176.26L49.9732 132.352C61.3694 100.345 77.7246 100.345 81.8131 100.345L81.811 100.344ZM130.861 125.498V125.504C130.84 125.526 107.541 146.923 103.352 154.533L118.61 153.922V167.228C118.61 167.851 124.732 167.597 130.861 167.313H130.868C136.995 167.597 143.119 167.851 143.119 167.228V153.922L158.376 154.533C154.186 146.923 130.867 125.504 130.867 125.504V125.498L130.864 125.5L130.861 125.498Z" fill="#FA5C5C"/>
</g>
<defs>
<clipPath id="clip0_3_9">
<rect width="261.728" height="235.452" fill="white"/>
</clipPath>
</defs>
</svg>
